# xmcd
#
# Track frame offsets: 
#        150
#        20336
#        38198
#        64842
#        94089
#        113182
#        140045
#        168497
#        189112
#        224544
#        243978
#        264956
#        291458
#
# Disc length: 4048 seconds
#
# Revision: 0
# Processed by: cddbd v1.5.2PL0 Copyright (c) Steve Scherf et al.
# Submitted via: ExactAudioCopy v1.0b4
#
DISCID=bf0fce0d
DTITLE=Riot And The Blues Devils - Turn It Up: Live!
DYEAR=2014
DGENRE=Blues Rock
TTITLE0=Blues Devils (Are In Town)
TTITLE1=Finding The Blues
TTITLE2=$150 Hat
TTITLE3=I'm Ready
TTITLE4=Get The Show On The Road
TTITLE5=Close To You
TTITLE6=I Don't Care
TTITLE7=Turn It Up That's All Right Mama
TTITLE8=Salvation
TTITLE9=I Miss My Woman
TTITLE10=Tough Times (For The Blues)
TTITLE11=The Father Of The Son And The Holy Ghost
TTITLE12=Women Of The Night
EXTD=
EXTT0=
EXTT1=
EXTT2=
EXTT3=
EXTT4=
EXTT5=
EXTT6=
EXTT7=
EXTT8=
EXTT9=
EXTT10=
EXTT11=
EXTT12=
PLAYORDER=
